<svg width="30" height="30" viewBox="0 0 30 30" fill="none" xmlns="http://www.w3.org/2000/svg">
<g clip-path="url(#clip0_264_2420)">
<path d="M8.64445 15.4263C8.08834 14.5393 7.04578 13.335 7.04578 12.2961C7.04578 11.7091 7.5075 10.9437 8.16902 10.7734C8.11641 9.89503 8.08201 9.00255 8.08201 8.12C8.08201 7.59735 8.09186 7.06976 8.11154 6.55204C8.31703 4.20559 9.99527 2.5503 12.1247 1.77274C12.9788 1.46085 12.5648 0.0201374 13.5018 0.00117982C15.6912 -0.0556341 19.2903 1.95123 20.6944 3.47387C21.588 4.46366 22.0983 5.74467 22.1281 7.07933L22.039 10.9198C22.4284 11.0149 22.8634 11.3193 22.9597 11.7093C23.259 12.9214 22.0034 14.43 21.4198 15.3939C20.881 16.2839 18.8239 19.1626 18.822 19.1825C18.8122 19.2865 18.8654 19.4187 19.0068 19.6308C22.2009 24.0283 30 21.2535 30 30H0C0 21.2481 7.80176 24.0284 10.9932 19.6309C11.1509 19.3986 11.2229 19.2735 11.2211 19.1715C11.2202 19.117 8.85615 15.7639 8.64445 15.4263Z" fill="#BDE1FF"/>
</g>
<defs>
<clipPath id="clip0_264_2420">
<rect width="30" height="30" fill="white"/>
</clipPath>
</defs>
</svg>
